<?xml version="1.0" encoding="UTF-8"?>
<svg xmlns="http://www.w3.org/2000/svg" xmlns:xlink="http://www.w3.org/1999/xlink" width="24" height="24" viewBox="0 0 24 24" version="1.1">
    <title>Public/ic_public_send_filled</title>
    <defs>
        <path d="M12,1 C18.0751322,1 23,5.92486775 23,12 C23,18.0751322 18.0751322,23 12,23 C5.92486775,23 1,18.0751322 1,12 C1,5.92486775 5.92486775,1 12,1 Z M12,18 C12.4142136,18 12.75,17.6642136 12.75,17.25 L12.75,8.148 L16.7196699,12.1159903 C17.0125631,12.4088835 17.4874369,12.4088835 17.7803301,12.1159903 C18.0627628,11.8335575 18.0728497,11.3819107 17.8105907,11.0873913 L17.7803301,11.0553301 L13.2374369,6.51243687 C12.5682572,5.84325722 11.4919646,5.82931598 10.8058219,6.47061314 L10.7625631,6.51243687 L6.21966991,11.0553301 C5.9267767,11.3482233 5.9267767,11.823097 6.21966991,12.1159903 C6.50210266,12.398423 6.95374943,12.4085099 7.2482689,12.1462509 L7.28033009,12.1159903 L11.25,8.147 L11.25,17.25 C11.25,17.6642136 11.5857864,18 12,18 Z" id="_path-1"/>
    </defs>
    <g id="_Public/ic_public_send_filled" stroke="none" stroke-width="1" fill="none" fill-rule="evenodd">
        <mask id="_mask-2" fill="white">
            <use xlink:href="#_path-1"/>
        </mask>
        <use id="_形状结合" fill="#000000" fill-rule="nonzero" xlink:href="#_path-1"/>
    </g>
</svg>