<?xml version="1.0" encoding="UTF-8"?>
<svg width="18px" height="18px" viewBox="0 0 18 18" version="1.1" xmlns="http://www.w3.org/2000/svg" xmlns:xlink="http://www.w3.org/1999/xlink">
    <!-- Generator: Sketch 63.1 (92452) - https://sketch.com -->
    <title>Public/ic_public_input_scan</title>
    <desc>Created with Sketch.</desc>
    <defs>
        <path d="M4.5,8.0625 L13.5,8.0625 C13.9142136,8.0625 14.25,8.39828644 14.25,8.8125 C14.25,9.22671356 13.9142136,9.5625 13.5,9.5625 L4.5,9.5625 C4.08578644,9.5625 3.75,9.22671356 3.75,8.8125 C3.75,8.39828644 4.08578644,8.0625 4.5,8.0625 Z M15.75,10.125 C16.1346269,10.125 16.4516304,10.4145301 16.4949542,10.7875342 L16.5,10.875 L16.5,13.3125 C16.5,14.9191465 15.2370236,16.2308092 13.6497303,16.3088285 L13.5,16.3125 L11.0625,16.3125 C10.6482864,16.3125 10.3125,15.9767136 10.3125,15.5625 C10.3125,15.1778731 10.6020301,14.8608696 10.9750342,14.8175458 L11.0625,14.8125 L13.5,14.8125 C14.2907713,14.8125 14.9386238,14.2005917 14.9958857,13.4244468 L15,13.3125 L15,10.875 C15,10.4607864 15.3357864,10.125 15.75,10.125 Z M2.25,10.125 C2.63462688,10.125 2.95163037,10.4145301 2.9949542,10.7875342 L3,10.875 L3,13.3125 C3,14.1032713 3.61190834,14.7511238 4.38805324,14.8083857 L4.5,14.8125 L6.9375,14.8125 C7.35171356,14.8125 7.6875,15.1482864 7.6875,15.5625 C7.6875,15.9471269 7.39796986,16.2641304 7.02496584,16.3074542 L6.9375,16.3125 L4.5,16.3125 C2.89335346,16.3125 1.58169084,15.0495236 1.50367148,13.4622303 L1.5,13.3125 L1.5,10.875 C1.5,10.4607864 1.83578644,10.125 2.25,10.125 Z M13.5,1.3125 C15.1066465,1.3125 16.4183092,2.57547635 16.4963285,4.16276974 L16.5,4.3125 L16.5,6.75 C16.5,7.16421356 16.1642136,7.5 15.75,7.5 C15.3653731,7.5 15.0483696,7.21046986 15.0050458,6.83746584 L15,6.75 L15,4.3125 C15,3.52172865 14.3880917,2.87387616 13.6119468,2.8166143 L13.5,2.8125 L11.0625,2.8125 C10.6482864,2.8125 10.3125,2.47671356 10.3125,2.0625 C10.3125,1.67787312 10.6020301,1.36086963 10.9750342,1.3175458 L11.0625,1.3125 L13.5,1.3125 Z M6.9375,1.3125 C7.35171356,1.3125 7.6875,1.64828644 7.6875,2.0625 C7.6875,2.44712688 7.39796986,2.76413037 7.02496584,2.8074542 L6.9375,2.8125 L4.5,2.8125 C3.70922865,2.8125 3.06137616,3.42440834 3.0041143,4.20055324 L3,4.3125 L3,6.75 C3,7.16421356 2.66421356,7.5 2.25,7.5 C1.86537312,7.5 1.54836963,7.21046986 1.5050458,6.83746584 L1.5,6.75 L1.5,4.3125 C1.5,2.70585346 2.76297635,1.39419084 4.35026974,1.31617148 L4.5,1.3125 L6.9375,1.3125 Z" id="path-1"></path>
    </defs>
    <g id="Public/ic_public_input_scan" stroke="none" stroke-width="1" fill="none" fill-rule="evenodd">
        <mask id="mask-2" fill="white">
            <use xlink:href="#path-1"></use>
        </mask>
        <use id="形状结合" fill="#000000" fill-rule="nonzero" xlink:href="#path-1"></use>
    </g>
</svg>